<?xml version="1.0" standalone="no"?>
<!DOCTYPE svg PUBLIC "-//W3C//DTD SVG 20010904//EN"
 "http://www.w3.org/TR/2001/REC-SVG-20010904/DTD/svg10.dtd">
<svg version="1.0" xmlns="http://www.w3.org/2000/svg"
 width="468.000000pt" height="468.000000pt" viewBox="0 0 468.000000 468.000000"
 preserveAspectRatio="xMidYMid meet">

<g transform="translate(0.000000,468.000000) scale(0.100000,-0.100000)"
fill="#000000" stroke="none">
<path d="M3085 3435 c-137 -34 -268 -70 -290 -80 -28 -13 -68 -19 -135 -20
-52 -1 -107 -7 -122 -13 -22 -9 -33 -6 -74 20 -47 29 -49 30 -109 18 -108 -20
-136 -23 -148 -11 -23 23 -163 5 -198 -25 -9 -9 -53 -16 -110 -20 -69 -4 -110
-12 -152 -31 -64 -27 -75 -27 -212 1 -75 15 -143 30 -413 90 l-113 25 -37 -21
c-20 -12 -45 -28 -54 -36 -12 -10 -30 -13 -61 -8 -43 7 -45 6 -130 -69 -47
-41 -122 -118 -167 -171 -75 -90 -81 -99 -76 -133 3 -20 8 -74 12 -120 8 -101
8 -102 229 -297 l150 -132 34 -84 c18 -45 55 -121 81 -168 26 -47 57 -103 68
-125 23 -47 133 -155 157 -155 9 0 56 -28 105 -62 l88 -63 -5 -41 c-8 -59 27
-169 76 -241 23 -34 46 -74 52 -90 7 -20 40 -52 99 -97 71 -52 90 -72 90 -91
0 -52 29 -102 73 -123 51 -24 177 -74 233 -91 22 -7 46 -22 52 -32 11 -17 9
-19 -25 -20 -110 -2 -148 4 -206 32 -78 37 -95 54 -104 98 -7 36 -7 36 -12 8
-4 -19 -59 -84 -166 -196 l-160 -168 -226 -121 c-125 -68 -249 -129 -277 -137
-35 -11 -97 -51 -208 -134 -148 -111 -160 -123 -181 -173 -12 -29 -29 -70 -37
-91 l-16 -37 649 0 650 0 -6 45 c-5 41 -3 45 21 55 15 5 32 9 38 7 11 -2 13 8
9 47 0 7 -14 27 -31 44 -50 53 -42 63 43 57 141 -12 157 -14 166 -20 10 -6 54
4 195 42 49 13 91 21 94 18 7 -6 9 -4 -58 -40 -67 -35 -78 -45 -84 -78 -8 -45
-25 -64 -61 -71 -51 -10 -39 -30 19 -34 39 -3 45 -6 36 -17 -6 -8 -9 -23 -5
-35 6 -20 7 -20 1081 -20 l1074 0 -5 23 c-6 29 -35 200 -35 210 0 4 -78 59
-173 122 -150 98 -194 121 -322 170 -211 82 -411 170 -556 248 -118 62 -133
74 -218 166 -64 69 -100 118 -121 163 -16 36 -38 71 -50 79 -20 13 -21 19 -12
51 9 33 8 38 -10 44 -13 4 -17 11 -13 22 4 10 25 67 48 127 22 61 57 135 77
165 21 30 63 105 93 167 31 62 69 125 84 141 16 15 112 123 214 238 156 176
211 230 337 332 139 113 161 135 265 272 l114 149 -17 93 c-10 51 -20 109 -24
129 -6 34 -17 43 -164 137 -86 55 -211 127 -277 160 -203 101 -153 98 -440 27z
m-398 -661 c8 -23 -8 -47 -38 -54 -46 -13 -70 12 -49 50 14 26 78 28 87 4z
m-1461 -65 c1 -24 -17 -39 -46 -39 -36 0 -43 19 -18 47 15 16 26 20 42 14 11
-5 21 -15 22 -22z m688 -1831 c14 -19 14 -23 2 -30 -22 -13 -46 2 -46 28 0 30
24 31 44 2z m171 -29 c-8 -12 -52 -12 -60 0 -3 5 7 11 22 13 33 4 45 0 38 -13z
m-282 -15 c4 -1 11 -2 15 -3 5 0 15 -12 22 -26 7 -14 18 -25 23 -25 5 0 17
-10 28 -22 13 -17 18 -19 19 -8 0 12 2 13 9 1 5 -7 28 -15 52 -17 23 -2 47 -8
53 -14 5 -5 30 -10 54 -10 26 0 58 -8 76 -19 31 -19 130 -37 176 -32 21 3 22
1 11 -13 -7 -8 -20 -18 -29 -21 -10 -2 -22 -15 -27 -27 -7 -15 -26 -27 -57
-36 -27 -7 -48 -17 -48 -23 0 -5 -7 -9 -15 -9 -8 0 -15 -4 -15 -9 0 -4 24 -9
53 -10 57 -1 163 -26 183 -42 22 -18 -5 -46 -60 -64 -28 -9 -66 -29 -86 -44
-30 -24 -60 -41 -80 -45 -3 -1 -14 -7 -25 -12 -11 -6 -49 -17 -85 -24 -36 -6
-72 -14 -81 -16 -15 -4 -59 29 -59 45 0 5 29 12 65 16 41 4 74 14 90 27 28 22
25 38 -8 38 -25 0 -95 23 -138 46 -16 8 -29 12 -29 9 0 -4 -13 2 -30 12 -31
18 -39 38 -17 46 6 2 51 2 98 -1 48 -2 99 -2 115 2 l29 8 -31 13 c-17 7 -34
20 -37 29 -4 9 -12 16 -19 16 -7 0 -30 18 -52 40 -22 23 -48 40 -61 40 -12 0
-36 14 -53 30 -18 17 -38 30 -45 30 -30 0 -50 103 -25 128 6 6 16 8 22 4 6 -4
14 -7 19 -8z"/>
</g>
</svg>
